<svg width="34" height="32" viewBox="0 0 34 32" fill="none" xmlns="http://www.w3.org/2000/svg">
<mask id="mask0_6347_14832" style="mask-type:luminance" maskUnits="userSpaceOnUse" x="0" y="-1" width="34" height="11">
<path d="M4.01994 9.33232L14.9337 4.74197C15.9862 4.29934 18.0523 4.44383 19.525 5.06314L29.675 9.33212L33.0943 7.89397C33.4467 7.74582 33.6425 7.54977 33.6921 7.33131V7.10164C33.6114 6.72157 33.1426 6.30421 32.3305 5.96287L19.525 0.576924C18.0525 -0.0423912 15.9862 -0.187081 14.9337 0.255753L0.600566 6.28424C0.241082 6.43545 0.044426 6.63639 0 6.86015V7.06252C0.0721414 7.44625 0.542282 7.86972 1.36437 8.21535L4.01994 9.33232Z" fill="white"/>
</mask>
<g mask="url(#mask0_6347_14832)">
<path d="M33.6923 -0.186523H0.000488281V9.33267H33.6923V-0.186523Z" fill="url(#paint0_linear_6347_14832)"/>
</g>
<mask id="mask1_6347_14832" style="mask-type:luminance" maskUnits="userSpaceOnUse" x="0" y="7" width="34" height="12">
<path d="M18.7614 13.9205C17.7089 14.3631 15.6429 14.2186 14.1701 13.5993L4.02015 9.33035L1.36437 8.21338C0.542488 7.86775 0.0721414 7.44428 0 7.06055V11.3446V11.547C0.0721414 11.9307 0.542284 12.3542 1.36437 12.6998L14.1699 18.0857C15.6424 18.7051 17.7087 18.8497 18.7612 18.4069L33.0943 12.3784C33.4467 12.2303 33.6425 12.0342 33.6921 11.8158V11.5861V7.32934C33.6425 7.54781 33.4467 7.74385 33.0943 7.89201L18.7614 13.9205Z" fill="white"/>
</mask>
<g mask="url(#mask1_6347_14832)">
<path d="M33.6923 7.06055H0.000488281V18.8497H33.6923V7.06055Z" fill="url(#paint1_linear_6347_14832)"/>
</g>
<mask id="mask2_6347_14832" style="mask-type:luminance" maskUnits="userSpaceOnUse" x="0" y="13" width="34" height="13">
<path d="M18.7614 20.3433C17.7089 20.786 15.6429 20.6415 14.1701 20.0222L4.02015 15.7532L1.36437 14.6362C0.542488 14.2906 0.0721414 13.8671 0 13.4834V17.7675V17.9698C0.0721414 18.3536 0.542284 18.777 1.36437 19.1227L14.1699 24.5086C15.6424 25.1279 17.7087 25.2726 18.7612 24.8298L33.0943 18.8013C33.4467 18.6531 33.6425 18.4571 33.6921 18.2386V18.0089V13.7522C33.6425 13.9707 33.4467 14.1665 33.0943 14.3149L18.7614 20.3433Z" fill="white"/>
</mask>
<g mask="url(#mask2_6347_14832)">
<path d="M33.6923 13.4834H0.000488281V25.2726H33.6923V13.4834Z" fill="url(#paint2_linear_6347_14832)"/>
</g>
<mask id="mask3_6347_14832" style="mask-type:luminance" maskUnits="userSpaceOnUse" x="0" y="20" width="34" height="13">
<path d="M18.7614 27.2574C17.7089 27.7 15.6429 27.5556 14.1701 26.9362L4.02015 22.6673L1.36437 21.5503C0.542488 21.2047 0.0721414 20.7812 0 20.3975V24.6815V24.8839C0.0721414 25.2676 0.542284 25.6911 1.36437 26.0367L14.1699 31.4227C15.6424 32.042 17.7087 32.1867 18.7612 31.7438L33.0943 25.7153C33.4467 25.5672 33.6425 25.3711 33.6921 25.1527V24.923V20.6663C33.6425 20.8847 33.4467 21.0806 33.0943 21.2289L18.7614 27.2574Z" fill="white"/>
</mask>
<g mask="url(#mask3_6347_14832)">
<path d="M33.6923 20.3975H0.000488281V32.1867H33.6923V20.3975Z" fill="url(#paint3_linear_6347_14832)"/>
</g>
<path fill-rule="evenodd" clip-rule="evenodd" d="M14.1704 16.052C15.6429 16.6714 17.7092 16.8161 18.7617 16.3732L33.0948 10.3447C33.4472 10.1966 33.643 10.0005 33.6925 9.78207V7.3313C33.643 7.54976 33.4472 7.7458 33.0948 7.89396L29.6754 9.3321L18.7619 13.9225C17.7094 14.3651 15.6433 14.2206 14.1706 13.6013L4.02064 9.3323L1.36486 8.21533C0.542974 7.86971 0.0726296 7.44623 0.000488281 7.0625V9.51327C0.0726296 9.897 0.54277 10.3205 1.36486 10.6661L4.02064 11.7831L14.1704 16.052Z" fill="#A5F0FC"/>
<defs>
<linearGradient id="paint0_linear_6347_14832" x1="16.8464" y1="-0.900963" x2="16.8464" y2="7.24817" gradientUnits="userSpaceOnUse">
<stop stop-color="#155B75"/>
<stop offset="1" stop-color="#164C63"/>
</linearGradient>
<linearGradient id="paint1_linear_6347_14832" x1="16.8634" y1="18.6588" x2="16.8217" y2="4.66393" gradientUnits="userSpaceOnUse">
<stop stop-color="#0E7090"/>
<stop offset="1" stop-color="#67E3F9"/>
</linearGradient>
<linearGradient id="paint2_linear_6347_14832" x1="16.8634" y1="25.0819" x2="16.8217" y2="11.0866" gradientUnits="userSpaceOnUse">
<stop stop-color="#0E7090"/>
<stop offset="1" stop-color="#7CD4FD"/>
<stop offset="1" stop-color="#67E3F9"/>
</linearGradient>
<linearGradient id="paint3_linear_6347_14832" x1="16.8634" y1="31.9955" x2="16.8217" y2="18.0007" gradientUnits="userSpaceOnUse">
<stop stop-color="#0E7090"/>
<stop offset="1" stop-color="#67E3F9"/>
</linearGradient>
</defs>
</svg>
