<svg width="20" height="22" viewBox="0 0 20 22" fill="none" xmlns="http://www.w3.org/2000/svg">
<path d="M18.8426 17.1447C18.5099 17.9133 18.1161 18.6208 17.6598 19.2713C17.0378 20.158 16.5286 20.7719 16.1361 21.1127C15.5277 21.6722 14.8759 21.9587 14.1779 21.975C13.6768 21.975 13.0725 21.8324 12.3691 21.5432C11.6633 21.2553 11.0148 21.1127 10.4217 21.1127C9.79978 21.1127 9.13274 21.2553 8.41926 21.5432C7.70469 21.8324 7.12904 21.9832 6.68892 21.9981C6.01957 22.0266 5.35239 21.7319 4.68644 21.1127C4.26139 20.742 3.72974 20.1064 3.09285 19.2061C2.40951 18.2446 1.84772 17.1297 1.4076 15.8587C0.93624 14.4857 0.699951 13.1563 0.699951 11.8692C0.699951 10.3948 1.01853 9.12321 1.65665 8.0576C2.15815 7.20166 2.82533 6.52647 3.66035 6.03081C4.49537 5.53514 5.39761 5.28256 6.36925 5.2664C6.9009 5.2664 7.59809 5.43085 8.46448 5.75405C9.32843 6.07834 9.88316 6.24279 10.1264 6.24279C10.3082 6.24279 10.9245 6.0505 11.9692 5.66714C12.9571 5.31162 13.7909 5.16441 14.474 5.2224C16.3249 5.37178 17.7155 6.10142 18.6402 7.41595C16.9849 8.41896 16.166 9.82379 16.1823 11.626C16.1972 13.0297 16.7065 14.1979 17.7073 15.1254C18.1609 15.5558 18.6674 15.8885 19.231 16.1248C19.1087 16.4793 18.9797 16.8188 18.8426 17.1447ZM14.5975 0.440125C14.5975 1.54038 14.1956 2.56768 13.3944 3.51854C12.4275 4.64892 11.258 5.30211 9.98976 5.19904C9.9736 5.06705 9.96423 4.92812 9.96423 4.78214C9.96423 3.7259 10.424 2.59552 11.2406 1.67127C11.6483 1.20331 12.1667 0.814209 12.7955 0.503814C13.4229 0.19805 14.0163 0.0289566 14.5744 0C14.5907 0.147086 14.5975 0.294182 14.5975 0.440111V0.440125Z" fill="black"/>
</svg>
