<svg width="32" height="32" viewBox="0 0 32 32" fill="none" xmlns="http://www.w3.org/2000/svg">
<path fill-rule="evenodd" clip-rule="evenodd" d="M32 16C32 24.8366 24.8366 32 16 32C7.16344 32 0 24.8366 0 16C0 7.16344 7.16344 0 16 0C24.8366 0 32 7.16344 32 16ZM7.6962 13.6709V27.038C12.1722 30.2582 18.3494 31.3316 24.324 27.0582V13.6911L21.2051 15.3722C21.7104 14.4422 21.9578 13.8521 22.1975 12.4152L26.5114 10.0861V24.9722C28.7488 21.9642 29.6151 20.0668 29.7924 15.9392C30.043 10.1063 24.8911 2.14684 16.162 2.14684C7.87848 2.36962 2.47089 8.38481 2.22784 15.7975C2.18431 19.68 2.94566 21.6837 5.50886 24.9924V10.1063L16.162 15.7975C18.7342 14.8456 19.6051 12.6582 19.1595 10.5924C18.7048 9.13997 17.8835 7.95694 15.9797 7.37215C15.2506 7.14819 12.881 7.23038 12.5367 7.27089V12.9418L10.3899 11.7873V5.18481H15.838C22.3595 5.63038 24.4658 16.1823 15.838 18.0253L7.6962 13.6709Z" fill="#0086C9"/>
<path d="M12.5367 17.2152V24.7291H17.3975C20.3342 24 21.043 19.8481 17.9646 18.2684C18.6734 17.9443 19.2566 17.532 19.9089 16.9316C21.3839 18.2289 22.0759 19.281 22.157 21.2861C22.157 24.3848 19.6658 26.6937 17.3975 26.8557H10.4101V16.0717L12.5367 17.2152Z" fill="#0086C9"/>
</svg>
