<svg width="20" height="20" viewBox="0 0 20 20" fill="none" xmlns="http://www.w3.org/2000/svg">
<path d="M9.16667 2.50033H6.5C5.09987 2.50033 4.3998 2.50033 3.86502 2.77281C3.39462 3.01249 3.01217 3.39494 2.77248 3.86535C2.5 4.40013 2.5 5.10019 2.5 6.50033V13.5003C2.5 14.9005 2.5 15.6005 2.77248 16.1353C3.01217 16.6057 3.39462 16.9882 3.86502 17.2278C4.3998 17.5003 5.09987 17.5003 6.5 17.5003H13.5C14.9001 17.5003 15.6002 17.5003 16.135 17.2278C16.6054 16.9882 16.9878 16.6057 17.2275 16.1353C17.5 15.6005 17.5 14.9005 17.5 13.5003V10.8337M10 6.66699H13.3333V10.0003M12.9167 2.91699V1.66699M16.1995 3.80088L17.0833 2.91699M17.0919 7.08366H18.3419M2.5 11.1229C3.04328 11.2068 3.59989 11.2503 4.16667 11.2503C7.82197 11.2503 11.0544 9.43999 13.0164 6.66699" stroke="white" stroke-width="1.66667" stroke-linecap="round" stroke-linejoin="round"/>
</svg>
