<svg width="20" height="20" viewBox="0 0 20 20" fill="none" xmlns="http://www.w3.org/2000/svg">
<g clip-path="url(#clip0_6229_139292)">
<path d="M7.50008 1.66699V3.33366M12.5001 1.66699V3.33366M7.50008 16.667V18.3337M12.5001 16.667V18.3337M16.6667 7.50033H18.3334M16.6667 11.667H18.3334M1.66675 7.50033H3.33341M1.66675 11.667H3.33341M7.33342 16.667H12.6667C14.0669 16.667 14.7669 16.667 15.3017 16.3945C15.7721 16.1548 16.1546 15.7724 16.3943 15.302C16.6667 14.7672 16.6667 14.0671 16.6667 12.667V7.33366C16.6667 5.93353 16.6667 5.23346 16.3943 4.69868C16.1546 4.22828 15.7721 3.84583 15.3017 3.60614C14.7669 3.33366 14.0669 3.33366 12.6667 3.33366H7.33342C5.93328 3.33366 5.23322 3.33366 4.69844 3.60614C4.22803 3.84583 3.84558 4.22828 3.6059 4.69868C3.33341 5.23346 3.33341 5.93353 3.33341 7.33366V12.667C3.33341 14.0671 3.33341 14.7672 3.6059 15.302C3.84558 15.7724 4.22803 16.1548 4.69844 16.3945C5.23322 16.667 5.93328 16.667 7.33342 16.667ZM8.83342 12.5003H11.1667C11.6335 12.5003 11.8668 12.5003 12.0451 12.4095C12.2019 12.3296 12.3294 12.2021 12.4093 12.0453C12.5001 11.8671 12.5001 11.6337 12.5001 11.167V8.83366C12.5001 8.36695 12.5001 8.13359 12.4093 7.95533C12.3294 7.79853 12.2019 7.67105 12.0451 7.59115C11.8668 7.50033 11.6335 7.50033 11.1667 7.50033H8.83342C8.3667 7.50033 8.13335 7.50033 7.95509 7.59115C7.79829 7.67105 7.6708 7.79853 7.59091 7.95533C7.50008 8.13359 7.50008 8.36695 7.50008 8.83366V11.167C7.50008 11.6337 7.50008 11.8671 7.59091 12.0453C7.6708 12.2021 7.79829 12.3296 7.95509 12.4095C8.13335 12.5003 8.3667 12.5003 8.83342 12.5003Z" stroke="white" stroke-width="1.66667" stroke-linecap="round" stroke-linejoin="round"/>
</g>
<defs>
<clipPath id="clip0_6229_139292">
<rect width="20" height="20" fill="white"/>
</clipPath>
</defs>
</svg>
