<svg
  width="16"
  height="12"
  viewBox="0 0 16 12"
  fill="none"
  xmlns="http://www.w3.org/2000/svg"
>
<path
    d="M1.3335 2.6665L6.77678 6.4768C7.21756 6.78535 7.43795 6.93962 7.67767 6.99938C7.88943 7.05216 8.1109 7.05216 8.32265 6.99938C8.56238 6.93962 8.78277 6.78535 9.22355 6.4768L14.6668 2.6665M4.5335 11.3332H11.4668C12.5869 11.3332 13.147 11.3332 13.5748 11.1152C13.9511 10.9234 14.2571 10.6175 14.4488 10.2412C14.6668 9.81333 14.6668 9.25328 14.6668 8.13317V3.8665C14.6668 2.7464 14.6668 2.18635 14.4488 1.75852C14.2571 1.3822 13.9511 1.07624 13.5748 0.884491C13.147 0.666504 12.5869 0.666504 11.4668 0.666504H4.5335C3.41339 0.666504 2.85334 0.666504 2.42552 0.884491C2.04919 1.07624 1.74323 1.3822 1.55148 1.75852C1.3335 2.18635 1.3335 2.7464 1.3335 3.8665V8.13317C1.3335 9.25328 1.3335 9.81333 1.55148 10.2412C1.74323 10.6175 2.04919 10.9234 2.42552 11.1152C2.85334 11.3332 3.41339 11.3332 4.5335 11.3332Z"
    stroke="#667085"
    stroke-width="1.33333"
    stroke-linecap="round"
    stroke-linejoin="round"
  />
</svg>
