<svg width="20" height="20" viewBox="0 0 20 20" fill="none" xmlns="http://www.w3.org/2000/svg">
<g clip-path="url(#clip0_6347_14880)">
<path d="M10.0001 12.5003C11.3808 12.5003 12.5001 11.381 12.5001 10.0003C12.5001 8.61961 11.3808 7.50033 10.0001 7.50033C8.61937 7.50033 7.50008 8.61961 7.50008 10.0003C7.50008 11.381 8.61937 12.5003 10.0001 12.5003Z" stroke="#667085" stroke-width="1.6" stroke-linecap="round" stroke-linejoin="round"/>
<path d="M15.6061 12.2731C15.5053 12.5016 15.4752 12.755 15.5198 13.0008C15.5643 13.2465 15.6815 13.4733 15.8561 13.6518L15.9016 13.6973C16.0425 13.838 16.1542 14.0051 16.2305 14.1891C16.3067 14.373 16.346 14.5702 16.346 14.7693C16.346 14.9684 16.3067 15.1655 16.2305 15.3495C16.1542 15.5334 16.0425 15.7005 15.9016 15.8412C15.7609 15.9821 15.5938 16.0939 15.4098 16.1701C15.2259 16.2464 15.0287 16.2856 14.8296 16.2856C14.6305 16.2856 14.4334 16.2464 14.2494 16.1701C14.0655 16.0939 13.8984 15.9821 13.7577 15.8412L13.7122 15.7958C13.5337 15.6211 13.3069 15.504 13.0611 15.4594C12.8154 15.4149 12.5619 15.4449 12.3334 15.5458C12.1093 15.6418 11.9183 15.8013 11.7836 16.0045C11.649 16.2078 11.5768 16.4459 11.5758 16.6897V16.8185C11.5758 17.2204 11.4162 17.6057 11.1321 17.8899C10.8479 18.174 10.4625 18.3337 10.0607 18.3337C9.65884 18.3337 9.27346 18.174 8.98931 17.8899C8.70517 17.6057 8.54554 17.2204 8.54554 16.8185V16.7503C8.53967 16.4996 8.45851 16.2564 8.31259 16.0524C8.16667 15.8484 7.96276 15.693 7.72735 15.6064C7.49886 15.5055 7.24539 15.4755 6.99964 15.52C6.75388 15.5646 6.52711 15.6817 6.34857 15.8564L6.30311 15.9018C6.1624 16.0427 5.99529 16.1545 5.81135 16.2307C5.62742 16.307 5.43026 16.3462 5.23114 16.3462C5.03203 16.3462 4.83487 16.307 4.65093 16.2307C4.46699 16.1545 4.29989 16.0427 4.15917 15.9018C4.0183 15.7611 3.90654 15.594 3.83029 15.4101C3.75405 15.2261 3.7148 15.029 3.7148 14.8299C3.7148 14.6308 3.75405 14.4336 3.83029 14.2497C3.90654 14.0657 4.0183 13.8986 4.15917 13.7579L4.20463 13.7124C4.37928 13.5339 4.49643 13.3071 4.54099 13.0614C4.58555 12.8156 4.55547 12.5622 4.45463 12.3337C4.35859 12.1096 4.19914 11.9185 3.99589 11.7839C3.79264 11.6493 3.55447 11.5771 3.31069 11.5761H3.1819C2.78006 11.5761 2.39467 11.4165 2.11053 11.1323C1.82638 10.8482 1.66675 10.4628 1.66675 10.0609C1.66675 9.65909 1.82638 9.2737 2.11053 8.98956C2.39467 8.70541 2.78006 8.54578 3.1819 8.54578H3.25008C3.50083 8.53991 3.74402 8.45875 3.94804 8.31283C4.15205 8.16692 4.30744 7.963 4.39402 7.7276C4.49487 7.4991 4.52495 7.24563 4.48039 6.99988C4.43583 6.75413 4.31867 6.52736 4.14402 6.34881L4.09857 6.30336C3.95769 6.16264 3.84594 5.99554 3.76969 5.8116C3.69344 5.62766 3.65419 5.4305 3.65419 5.23139C3.65419 5.03227 3.69344 4.83511 3.76969 4.65117C3.84594 4.46724 3.95769 4.30013 4.09857 4.15942C4.23928 4.01854 4.40639 3.90679 4.59032 3.83054C4.77426 3.75429 4.97142 3.71504 5.17054 3.71504C5.36965 3.71504 5.56681 3.75429 5.75075 3.83054C5.93469 3.90679 6.10179 4.01854 6.24251 4.15942L6.28796 4.20487C6.46651 4.37952 6.69328 4.49668 6.93903 4.54124C7.18478 4.5858 7.43825 4.55572 7.66675 4.45487H7.72735C7.95142 4.35884 8.14252 4.19938 8.27712 3.99613C8.41172 3.79288 8.48396 3.55471 8.48493 3.31093V3.18214C8.48493 2.7803 8.64456 2.39492 8.92871 2.11077C9.21285 1.82662 9.59824 1.66699 10.0001 1.66699C10.4019 1.66699 10.7873 1.82662 11.0715 2.11077C11.3556 2.39492 11.5152 2.7803 11.5152 3.18214V3.25033C11.5162 3.4941 11.5884 3.73228 11.723 3.93553C11.8576 4.13878 12.0487 4.29823 12.2728 4.39427C12.5013 4.49511 12.7548 4.52519 13.0005 4.48063C13.2463 4.43607 13.4731 4.31891 13.6516 4.14427L13.6971 4.09881C13.8378 3.95794 14.0049 3.84618 14.1888 3.76993C14.3727 3.69368 14.5699 3.65444 14.769 3.65444C14.9681 3.65444 15.1653 3.69368 15.3492 3.76993C15.5332 3.84618 15.7003 3.95794 15.841 4.09881C15.9819 4.23953 16.0936 4.40663 16.1699 4.59057C16.2461 4.7745 16.2854 4.97167 16.2854 5.17078C16.2854 5.36989 16.2461 5.56706 16.1699 5.75099C16.0936 5.93493 15.9819 6.10203 15.841 6.24275L15.7955 6.2882C15.6209 6.46675 15.5037 6.69352 15.4592 6.93927C15.4146 7.18503 15.4447 7.4385 15.5455 7.66699V7.7276C15.6416 7.95167 15.801 8.14276 16.0043 8.27737C16.2075 8.41197 16.4457 8.4842 16.6895 8.48517H16.8183C17.2201 8.48517 17.6055 8.64481 17.8896 8.92895C18.1738 9.2131 18.3334 9.59848 18.3334 10.0003C18.3334 10.4022 18.1738 10.7876 17.8896 11.0717C17.6055 11.3558 17.2201 11.5155 16.8183 11.5155H16.7501C16.5063 11.5164 16.2681 11.5887 16.0649 11.7233C15.8616 11.8579 15.7022 12.049 15.6061 12.2731Z" stroke="#667085" stroke-width="1.6" stroke-linecap="round" stroke-linejoin="round"/>
</g>
<defs>
<clipPath id="clip0_6347_14880">
<rect width="20" height="20" fill="white"/>
</clipPath>
</defs>
</svg>
